<?xml version="1.0" standalone="no"?>
<!DOCTYPE svg PUBLIC "-//W3C//DTD SVG 20010904//EN"
 "http://www.w3.org/TR/2001/REC-SVG-20010904/DTD/svg10.dtd">
<svg version="1.0" xmlns="http://www.w3.org/2000/svg"
 width="1080.000000pt" height="1440.000000pt" viewBox="0 0 1080.000000 1440.000000"
 preserveAspectRatio="xMidYMid meet">

<g transform="translate(0.000000,1440.000000) scale(0.100000,-0.100000)"
fill="#000000" stroke="none">
<path d="M5325 12084 c-176 -17 -411 -82 -512 -141 -31 -18 -43 -21 -43 -11 0
10 -3 9 -10 -2 -9 -13 -10 -13 -11 0 0 8 -5 4 -10 -11 -6 -15 -33 -39 -72 -62
-75 -44 -125 -95 -202 -207 -32 -47 -62 -86 -66 -88 -5 -2 -9 -9 -9 -16 0 -8
-8 -24 -19 -37 -37 -49 -91 -231 -100 -346 -5 -59 -16 -128 -24 -153 -9 -25
-18 -83 -21 -130 -3 -47 -13 -112 -21 -145 -9 -33 -21 -121 -26 -195 -11 -165
3 -312 38 -413 13 -40 31 -101 38 -137 8 -36 23 -87 34 -113 12 -27 21 -64 21
-82 0 -19 6 -49 14 -67 8 -18 30 -85 49 -148 19 -63 45 -136 58 -161 53 -104
81 -155 95 -170 8 -9 28 -44 45 -79 29 -59 30 -68 24 -139 l-7 -76 -87 -85
c-47 -47 -124 -114 -170 -150 -46 -36 -98 -78 -115 -94 -63 -59 -114 -95 -217
-155 -58 -33 -109 -61 -112 -61 -14 0 -145 -85 -192 -125 -72 -61 -198 -142
-282 -180 -40 -19 -87 -45 -105 -59 -18 -13 -80 -47 -138 -75 -208 -100 -248
-130 -304 -235 -59 -110 -142 -309 -161 -387 -9 -35 -24 -95 -35 -134 -11 -38
-24 -117 -30 -175 -6 -58 -15 -141 -20 -185 -5 -44 -12 -118 -15 -165 -6 -89
-32 -198 -65 -274 -11 -24 -31 -95 -44 -157 -13 -63 -31 -132 -40 -154 -18
-48 -31 -114 -52 -260 -19 -137 -53 -312 -84 -435 -5 -19 -16 -62 -24 -95 -32
-122 -14 -448 29 -554 19 -46 29 -94 35 -170 5 -58 13 -126 19 -151 5 -25 15
-97 21 -160 6 -63 15 -119 21 -124 5 -6 9 -26 9 -46 0 -20 3 -39 6 -43 3 -3 8
-30 10 -59 2 -29 11 -73 18 -98 8 -25 20 -76 26 -115 6 -38 16 -86 20 -105 5
-19 14 -64 20 -100 16 -96 48 -228 70 -287 20 -53 85 -153 100 -153 5 0 22
-11 38 -25 50 -42 116 -59 225 -58 103 1 141 8 306 55 103 29 162 32 210 9 39
-19 85 -30 98 -22 20 11 3 22 -73 49 -82 29 -157 28 -249 -3 -40 -14 -97 -27
-127 -29 -29 -2 -81 -11 -114 -20 -73 -18 -150 -9 -221 25 -57 28 -141 111
-164 163 -17 40 -57 189 -78 296 -21 110 -41 218 -45 246 -4 38 -25 138 -38
189 -20 76 -46 245 -54 350 -4 44 -11 85 -16 92 -5 6 -12 54 -14 105 -4 80
-23 172 -54 268 -10 29 -20 184 -21 320 -1 75 6 121 30 220 46 181 69 294 76
362 9 92 41 252 78 388 14 52 29 114 32 138 4 23 20 77 37 120 42 110 77 257
78 327 0 33 2 74 5 90 3 17 7 73 10 125 6 111 6 115 47 285 37 159 81 280 153
428 60 124 109 185 171 216 23 11 48 26 55 33 16 15 102 58 115 58 16 0 128
62 164 91 19 15 49 31 65 35 26 6 84 39 160 90 11 8 50 34 87 59 37 24 73 53
80 65 7 11 17 20 21 20 5 0 32 15 60 34 29 19 66 40 82 47 17 8 32 16 35 20 3
4 43 26 88 50 120 63 125 66 142 86 22 27 189 165 240 200 55 38 161 147 182
188 23 45 30 134 15 191 -7 27 -45 103 -83 169 -39 66 -77 136 -84 155 -7 19
-16 40 -20 45 -4 6 -14 39 -24 75 -31 115 -50 175 -58 184 -4 6 -8 25 -8 43 0
19 -7 50 -16 71 -13 32 -51 181 -99 392 -23 99 -20 341 5 444 10 44 24 129 29
187 6 58 15 119 21 135 6 16 17 86 25 155 9 87 19 138 34 167 12 23 21 48 21
56 0 49 146 254 258 361 62 60 65 62 120 63 32 1 79 6 106 11 27 5 55 7 63 4
7 -3 13 2 13 11 0 13 -13 16 -76 16 -42 0 -73 4 -70 9 9 14 85 51 156 77 36
12 90 32 120 43 60 22 188 46 290 56 113 10 362 -36 335 -63 -4 -4 -68 -7
-143 -7 -126 0 -140 -2 -168 -22 -17 -12 -37 -36 -44 -53 -8 -20 -22 -32 -39
-36 -56 -12 -112 -47 -146 -91 -40 -52 -40 -72 0 -24 36 42 73 67 114 76 l34
7 -6 -38 c-6 -33 -2 -29 32 36 57 111 49 108 299 115 228 6 276 0 322 -40 14
-12 43 -34 65 -50 22 -16 87 -78 146 -138 91 -93 112 -121 156 -210 54 -107
96 -238 113 -353 31 -209 62 -396 71 -425 24 -83 57 -280 57 -344 0 -38 4
-110 7 -160 7 -86 5 -95 -30 -200 -37 -113 -73 -195 -85 -195 -4 0 -17 -30
-30 -66 -17 -51 -20 -78 -16 -122 7 -66 -7 -285 -25 -387 -20 -116 -14 -185
26 -281 50 -121 85 -163 180 -217 114 -65 176 -94 258 -124 72 -26 144 -59
227 -106 90 -51 107 -60 204 -109 54 -28 122 -57 150 -65 28 -8 101 -39 161
-68 61 -29 133 -60 160 -69 145 -46 217 -67 280 -81 39 -9 124 -34 189 -56 92
-31 130 -49 170 -82 71 -58 69 -56 100 -109 15 -27 32 -48 37 -48 14 0 11 16
-6 30 -8 7 -15 19 -15 27 0 17 -78 96 -143 146 -41 32 -167 78 -332 121 -244
65 -256 69 -420 144 -66 30 -150 65 -187 78 -85 30 -219 96 -343 169 -98 58
-207 107 -262 119 -49 11 -286 145 -316 179 -83 96 -125 245 -102 357 20 91
32 232 35 390 2 144 9 174 63 253 14 21 35 70 47 110 12 40 27 86 33 102 8 20
11 92 9 220 -2 188 -12 263 -56 420 -8 28 -26 133 -41 235 -29 203 -74 405
-106 478 -77 173 -125 245 -209 313 -30 25 -59 54 -64 65 -13 29 -180 158
-231 178 -5 2 -39 11 -75 21 -36 9 -76 21 -90 26 -112 38 -274 62 -365 53z"/>
<path d="M4705 11561 c-46 -46 -93 -158 -102 -241 -3 -32 -8 -62 -12 -67 -8
-10 -78 -43 -93 -43 -6 0 -26 -11 -44 -25 -18 -14 -35 -25 -38 -25 -3 0 -21
-11 -41 -24 -66 -45 -18 -36 71 14 49 27 103 50 119 52 17 2 35 8 40 15 17 20
86 32 230 38 214 8 264 14 345 40 200 63 258 77 363 85 62 5 136 14 166 20
126 24 194 3 266 -80 55 -64 59 -74 91 -202 22 -87 45 -140 104 -243 23 -41
43 -196 71 -572 16 -220 -1 -326 -86 -548 -14 -38 -37 -100 -50 -136 -12 -36
-36 -85 -51 -109 -34 -50 -94 -161 -94 -174 0 -8 -100 -231 -122 -270 -38 -70
-54 -94 -86 -128 -31 -33 -124 -87 -150 -88 -4 0 -34 -14 -67 -30 -71 -35
-131 -39 -184 -11 -20 11 -56 29 -81 41 -91 42 -205 140 -278 239 -14 20 -44
58 -66 84 l-39 48 6 72 c3 41 19 115 37 170 29 88 37 101 80 137 46 38 64 43
53 14 -3 -8 -2 -14 1 -14 11 0 27 52 22 67 -5 11 -13 10 -43 -6 -105 -55 -148
-142 -162 -331 l-6 -85 -48 65 c-47 64 -82 107 -164 201 -80 92 -170 285 -189
404 -3 22 -8 43 -10 46 -6 10 -36 210 -44 299 -6 53 -5 130 3 207 8 92 8 156
-1 259 -9 108 -9 140 1 152 10 13 9 14 -10 3 -27 -14 -28 -38 -12 -176 7 -65
7 -119 -2 -195 -20 -178 -12 -289 42 -570 38 -196 124 -364 269 -525 61 -68
180 -235 180 -252 0 -8 4 -12 9 -9 10 6 42 -28 61 -67 20 -41 135 -158 202
-205 31 -23 82 -54 115 -70 32 -16 72 -37 90 -46 27 -14 42 -15 86 -7 30 5 72
19 93 30 21 10 73 35 114 55 85 39 144 95 183 171 37 72 100 208 137 295 35
81 85 175 107 201 7 9 24 47 37 85 14 38 37 98 51 134 102 250 118 390 85 710
-5 47 -14 139 -20 205 -12 126 -27 213 -40 230 -33 43 -84 163 -101 234 -23
104 -44 155 -81 201 -57 69 -92 98 -143 115 -49 17 -59 17 -176 2 -68 -9 -155
-19 -194 -23 -66 -6 -122 -20 -322 -80 -64 -19 -119 -27 -255 -34 -200 -11
-269 -17 -294 -27 -16 -6 -17 -1 -11 55 8 78 55 182 89 201 15 7 29 23 32 34
4 18 10 19 68 13 188 -19 204 -19 188 -4 -8 9 -52 20 -100 27 -138 18 -151 16
-195 -28z"/>
<path d="M6406 10658 c11 -67 15 -78 25 -78 7 0 9 9 5 23 -3 12 -6 37 -6 55 0
21 -5 32 -15 32 -11 0 -13 -8 -9 -32z"/>
<path d="M5754 10631 c-34 -10 -67 -22 -75 -29 -131 -105 -175 -197 -180 -377
-2 -52 18 -169 32 -195 11 -21 11 62 -1 120 -20 99 38 315 103 383 60 63 150
97 252 97 61 0 73 -14 23 -25 -18 -4 -49 -16 -68 -26 -19 -10 -66 -32 -105
-50 -74 -33 -129 -68 -121 -76 3 -3 20 5 38 18 18 13 33 22 33 21 0 -2 13 1
28 7 16 6 36 11 46 11 33 0 111 32 125 51 20 29 166 45 208 23 38 -20 51 -8
20 17 -61 49 -237 64 -358 30z"/>
<path d="M4850 10521 c-19 -5 -48 -13 -63 -20 -16 -6 -49 -11 -75 -12 -39 0
-43 -2 -24 -10 34 -13 24 -39 -28 -66 l-45 -24 38 5 c21 3 55 19 78 37 44 35
58 33 40 -7 -6 -14 -9 -29 -7 -32 2 -4 67 -7 145 -7 125 0 142 2 158 19 17 18
17 19 -2 11 -22 -9 -123 -8 -199 1 -34 4 -51 2 -57 -7 -5 -9 -10 -5 -15 15 -9
36 1 44 72 61 77 19 102 18 175 -2 47 -13 71 -27 109 -65 61 -60 72 -81 97
-183 15 -61 19 -106 16 -192 -2 -66 1 -114 7 -118 17 -10 22 41 17 172 -4 108
-9 139 -32 200 -37 98 -117 180 -201 207 -67 21 -154 28 -204 17z"/>
<path d="M4800 10450 c0 -5 5 -10 10 -10 6 0 10 5 10 10 0 6 -4 10 -10 10 -5
0 -10 -4 -10 -10z"/>
<path d="M6406 10418 c-13 -41 -20 -272 -8 -264 14 9 31 128 29 208 -2 71 -10
93 -21 56z"/>
<path d="M5744 10291 c-29 -13 -52 -52 -60 -103 -8 -51 4 -43 31 22 10 25 21
47 23 50 2 3 46 7 98 10 53 3 94 9 94 15 0 13 -158 17 -186 6z"/>
<path d="M5097 10170 c-9 -33 -20 -88 -24 -121 -5 -51 -4 -61 8 -57 8 3 18 24
22 49 4 24 14 65 22 90 8 26 15 58 15 73 0 47 -25 27 -43 -34z"/>
<path d="M5740 9983 c29 -23 187 -92 240 -105 19 -4 61 -11 94 -14 44 -4 57
-2 54 8 -3 7 -45 20 -101 30 -52 9 -109 23 -124 32 -16 8 -56 23 -88 35 -33
11 -69 23 -80 27 -16 6 -15 3 5 -13z"/>
<path d="M4735 9745 c-5 -2 -23 -7 -40 -11 -28 -8 -27 -8 20 -14 59 -6 120 1
120 15 0 10 -79 18 -100 10z"/>
<path d="M5150 9675 c0 -14 5 -25 10 -25 6 0 10 11 10 25 0 14 -4 25 -10 25
-5 0 -10 -11 -10 -25z"/>
<path d="M5575 9604 c-27 -7 -69 -14 -92 -14 -47 0 -58 -16 -17 -26 34 -9 109
2 161 24 78 31 42 43 -52 16z"/>
<path d="M5056 9573 c-4 -9 -2 -21 4 -27 7 -7 10 -2 10 17 0 31 -5 34 -14 10z"/>
<path d="M5047 9510 c-3 -13 0 -20 9 -20 8 0 14 9 14 20 0 11 -4 20 -9 20 -5
0 -11 -9 -14 -20z"/>
<path d="M5598 9370 c-9 -6 -62 -14 -118 -19 -58 -4 -106 -14 -113 -21 -10
-10 11 -11 103 -7 118 5 175 18 168 39 -6 16 -20 19 -40 8z"/>
<path d="M5750 9320 c0 -5 5 -10 11 -10 5 0 7 5 4 10 -3 6 -8 10 -11 10 -2 0
-4 -4 -4 -10z"/>
<path d="M4710 9207 c0 -13 42 -77 51 -77 18 0 8 27 -21 55 -16 16 -30 26 -30
22z"/>
<path d="M6135 8994 c-27 -30 -61 -72 -75 -92 -40 -58 -88 -109 -175 -184
-112 -98 -214 -144 -367 -166 -54 -8 -78 -7 -130 7 -152 42 -360 148 -440 225
-29 27 -62 78 -93 139 -76 150 -68 107 11 -59 33 -69 102 -147 147 -165 18 -7
50 -25 73 -40 23 -15 68 -40 100 -54 32 -15 75 -34 94 -42 19 -9 67 -24 107
-34 66 -17 79 -17 150 -4 107 19 145 31 224 70 99 48 231 166 321 287 22 29
48 62 59 73 28 30 69 82 69 89 0 19 -31 -2 -75 -50z"/>
<path d="M5330 9015 c0 -12 34 -35 53 -35 12 0 17 4 12 8 -13 11 -65 33 -65
27z"/>
<path d="M5400 8965 c-13 -14 -21 -28 -17 -31 10 -10 107 29 107 43 0 24 -64
15 -90 -12z"/>
<path d="M5390 8814 c0 -8 5 -12 10 -9 6 4 8 11 5 16 -9 14 -15 11 -15 -7z"/>
<path d="M6593 8683 c-7 -3 -13 -11 -13 -19 0 -25 -122 -248 -156 -286 -12
-13 -38 -48 -57 -78 -39 -60 -169 -191 -232 -233 -39 -25 -199 -99 -300 -138
-97 -38 -407 -52 -536 -25 -70 14 -141 37 -149 47 -3 3 -18 9 -35 13 -41 10
-125 53 -155 81 -14 12 -47 39 -75 60 -55 41 -159 159 -217 245 -44 65 -74
131 -83 183 -4 20 -11 40 -16 43 -26 16 17 -144 52 -193 16 -23 40 -60 52 -81
46 -82 188 -221 315 -311 18 -12 58 -32 90 -43 31 -11 62 -23 67 -27 16 -11
74 -28 160 -46 66 -15 111 -17 255 -12 152 5 186 9 255 32 44 14 94 34 110 44
17 9 63 30 102 45 40 15 89 38 108 52 20 13 39 24 43 24 13 0 190 185 205 215
8 17 24 40 36 51 39 42 118 170 155 252 37 83 42 113 19 105z"/>
<path d="M5260 8366 c0 -16 61 -120 88 -149 35 -37 107 -56 217 -58 82 -2 95
1 144 28 53 28 76 53 50 53 -6 0 -36 -12 -66 -26 -50 -25 -61 -26 -156 -22
-118 5 -147 17 -197 79 -19 24 -38 49 -43 54 -4 6 -14 19 -22 30 -8 11 -15 16
-15 11z"/>
<path d="M8496 7832 c12 -8 94 -126 94 -135 0 -4 11 -30 24 -59 57 -125 83
-203 141 -418 39 -143 43 -166 50 -291 4 -63 15 -150 26 -194 20 -82 78 -244
105 -296 31 -61 62 -198 74 -329 13 -149 23 -195 70 -320 71 -187 81 -235 83
-377 1 -73 5 -129 10 -124 5 5 8 61 8 125 0 116 -18 225 -45 276 -7 14 -19 43
-25 65 -7 22 -16 49 -20 60 -34 82 -41 109 -50 175 -5 41 -13 114 -16 161 -4
48 -11 104 -16 125 -6 22 -14 56 -20 76 -5 20 -24 70 -43 110 -19 40 -51 127
-72 193 -32 103 -38 139 -44 255 -6 127 -20 196 -70 365 -5 17 -20 71 -34 120
-21 77 -73 207 -106 267 -6 10 -10 23 -10 29 0 24 -96 149 -114 149 -8 0 -8
-3 0 -8z"/>
<path d="M5945 6497 c-34 -12 -77 -32 -96 -44 -34 -21 -152 -73 -214 -95 -16
-5 -145 -11 -285 -13 -156 -2 -269 -8 -290 -15 -34 -11 -81 -16 -560 -59 -129
-11 -265 -25 -303 -31 -37 -5 -82 -10 -99 -10 -103 0 -385 -97 -359 -123 8 -8
26 -3 64 15 91 47 270 83 492 98 66 5 190 16 275 25 85 8 180 18 210 20 162
15 255 27 278 37 17 7 124 12 272 14 264 2 291 6 421 62 35 15 84 39 109 54
67 39 133 58 205 58 61 0 65 -2 89 -33 14 -18 37 -64 51 -103 15 -38 37 -87
50 -109 13 -23 33 -81 45 -130 20 -81 21 -103 14 -220 -24 -367 3 -536 101
-646 54 -61 100 -165 99 -226 -2 -74 -29 -123 -84 -150 -25 -12 -55 -22 -67
-23 -12 0 -60 20 -107 44 -128 65 -152 73 -343 111 -121 24 -216 37 -306 41
-73 3 -186 14 -252 24 -180 28 -500 43 -687 31 -175 -11 -344 3 -492 39 -113
29 -155 53 -201 116 -22 30 -42 54 -45 54 -11 0 -48 74 -68 135 -11 33 -27
119 -37 190 -16 124 -51 304 -61 314 -9 9 -3 -67 11 -149 9 -47 22 -139 30
-205 18 -159 46 -227 141 -346 62 -78 111 -109 219 -137 159 -42 300 -53 505
-41 102 6 208 8 235 5 28 -3 109 -8 180 -11 72 -4 180 -13 240 -20 61 -8 151
-17 200 -19 143 -9 227 -16 270 -26 22 -5 81 -16 130 -25 50 -9 110 -21 135
-27 47 -12 165 -63 190 -83 30 -24 108 -46 136 -39 98 23 151 93 153 201 1 62
-51 178 -110 247 -47 54 -57 74 -78 159 -28 109 -31 196 -16 463 7 140 6 157
-14 235 -13 46 -36 111 -51 144 -16 33 -39 86 -51 118 -12 31 -36 73 -53 92
-31 33 -36 35 -97 34 -39 0 -88 -9 -124 -22z"/>
<path d="M7714 6346 l-43 -45 -28 28 c-15 16 -38 32 -50 35 -27 9 -35 -7 -53
-104 -12 -71 -41 -137 -118 -273 l-49 -87 -10 52 -10 53 -2 -88 c-1 -79 -25
-270 -37 -288 -2 -4 -8 -27 -13 -51 -36 -179 -84 -316 -130 -372 -23 -27 -206
-112 -322 -149 -58 -18 -99 -36 -99 -44 0 -7 3 -13 8 -13 36 0 235 71 327 117
134 66 163 113 231 368 14 55 30 125 34 155 35 222 49 269 111 365 47 73 89
169 104 239 7 38 12 73 9 77 -2 4 0 10 5 14 5 3 30 -9 55 -26 l45 -32 42 41
c46 46 84 55 94 22 9 -30 -35 -117 -90 -175 -60 -64 -121 -141 -182 -230 -15
-22 -30 -42 -33 -45 -10 -9 -41 -60 -36 -60 11 0 67 61 101 110 47 69 93 126
168 210 87 97 120 186 81 224 -28 29 -64 19 -110 -28z"/>
<path d="M8034 6068 c-38 -30 -80 -67 -172 -156 -43 -40 -96 -87 -120 -104
-27 -21 -39 -35 -33 -41 12 -12 39 4 104 65 59 54 110 83 132 74 15 -5 15 -9
-2 -37 -10 -17 -39 -50 -64 -73 -69 -60 -149 -174 -149 -209 0 -37 20 -23 44
28 14 31 33 66 43 78 20 24 180 177 281 269 34 31 62 59 62 62 0 14 -47 -19
-109 -76 -69 -63 -81 -68 -81 -39 0 12 -9 23 -22 27 -21 6 -18 12 47 70 44 41
78 64 93 64 13 0 20 4 17 10 -10 17 -41 11 -71 -12z"/>
<path d="M8245 6078 c-32 -18 -78 -58 -66 -58 6 0 30 11 55 25 77 43 113 27
101 -44 -5 -33 -18 -50 -67 -93 -34 -29 -73 -60 -87 -69 -33 -20 -263 -247
-286 -283 -40 -61 -1 -30 106 85 63 66 143 142 179 168 36 27 79 61 97 78 17
16 41 36 54 44 30 20 40 117 14 142 -19 19 -70 22 -100 5z"/>
<path d="M8580 5718 c-113 -33 -289 -109 -339 -145 l-24 -17 7 37 c12 65 -27
98 -84 71 -22 -11 -123 -114 -232 -237 -19 -20 -42 -37 -52 -37 -16 0 -17 5
-11 38 6 36 6 36 -10 15 -8 -12 -18 -35 -21 -51 -6 -30 -6 -30 37 -28 33 2 46
8 58 27 8 13 45 55 81 94 158 169 181 185 210 150 15 -18 1 -61 -39 -115 -14
-19 -36 -50 -48 -67 -12 -18 -43 -53 -68 -78 -39 -40 -58 -75 -39 -75 13 0 90
76 142 140 30 36 75 83 100 104 48 40 135 86 162 86 9 0 25 6 36 14 11 8 60
26 109 41 81 25 99 27 209 22 96 -4 136 -10 195 -31 41 -14 83 -33 93 -43 10
-9 21 -13 25 -9 17 17 -21 43 -103 70 -78 26 -106 30 -224 32 -74 2 -151 -2
-170 -8z"/>
<path d="M7560 5548 c0 -7 -14 -57 -31 -111 -28 -87 -36 -102 -75 -134 -42
-34 -54 -53 -35 -53 5 0 30 17 56 38 41 32 50 48 76 122 29 86 37 150 19 150
-5 0 -10 -5 -10 -12z"/>
<path d="M9142 5213 c-15 -51 -23 -95 -32 -178 -18 -171 -33 -287 -47 -380 -8
-55 -17 -122 -18 -150 -2 -27 -9 -88 -15 -135 -34 -264 -44 -366 -36 -359 8 7
30 166 51 369 9 80 22 177 30 215 7 39 16 113 20 165 3 52 10 122 15 155 5 33
11 88 15 123 5 61 26 159 40 195 4 9 3 17 -2 17 -6 0 -15 -17 -21 -37z"/>
<path d="M2900 5090 c-58 -10 -136 -29 -175 -41 -76 -24 -203 -103 -232 -144
-10 -14 -32 -44 -50 -68 -18 -23 -30 -43 -28 -45 7 -7 72 51 86 77 22 39 127
109 209 140 43 16 136 38 219 51 133 22 153 22 275 12 72 -7 165 -19 206 -28
127 -26 270 -90 270 -121 0 -7 4 -13 10 -13 16 0 50 -77 50 -114 0 -21 6 -36
15 -40 12 -4 15 3 15 34 0 21 -5 51 -11 66 -18 49 -99 134 -148 156 -25 11
-54 25 -65 30 -54 28 -330 68 -461 67 -44 0 -127 -9 -185 -19z"/>
<path d="M3912 4943 c-22 -92 -29 -140 -23 -146 15 -15 41 53 52 133 5 36 14
80 20 97 10 31 6 53 -9 53 -4 0 -22 -61 -40 -137z"/>
<path d="M4894 4728 c3 -13 10 -54 16 -91 6 -38 23 -98 37 -133 22 -54 35 -69
74 -95 45 -29 69 -31 69 -8 0 5 -20 18 -45 29 -41 17 -50 27 -77 85 -16 36
-37 104 -46 150 -9 47 -20 85 -24 85 -5 0 -6 -10 -4 -22z"/>
<path d="M5189 4533 c36 -159 74 -191 229 -192 65 -1 72 1 72 19 0 18 -7 20
-90 20 -49 0 -100 5 -114 11 -26 12 -79 117 -91 182 -4 21 -11 37 -15 37 -4 0
0 -35 9 -77z"/>
<path d="M4430 4496 c0 -9 12 -18 28 -21 165 -33 206 -49 172 -70 -25 -15 -16
-23 209 -176 106 -71 152 -85 159 -47 2 12 -2 15 -16 11 -10 -2 -35 6 -54 19
-20 13 -51 32 -69 43 -100 59 -120 73 -155 103 -34 28 -36 32 -17 32 24 0 165
-66 210 -98 46 -32 226 -111 338 -147 57 -19 178 -72 348 -154 82 -39 153 -71
158 -71 8 0 122 -49 239 -102 25 -11 54 -24 65 -28 34 -14 106 -46 218 -99 59
-28 113 -51 120 -51 7 0 17 -4 23 -9 5 -5 34 -16 64 -26 30 -10 81 -28 112
-41 64 -27 88 -30 88 -11 0 6 -65 36 -148 67 -81 30 -185 73 -232 96 -47 23
-110 52 -140 64 -30 12 -86 36 -125 55 -38 18 -104 47 -145 65 -41 18 -89 38
-107 46 -17 8 -33 14 -36 14 -6 0 -130 58 -320 149 -71 33 -148 66 -173 72
-24 6 -47 15 -50 20 -3 5 -12 9 -21 9 -9 0 -39 11 -67 24 -28 13 -75 33 -104
45 -30 12 -78 38 -107 56 -75 48 -277 145 -303 145 -11 0 -31 4 -44 9 -13 4
-44 11 -70 15 -40 6 -48 5 -48 -8z"/>
<path d="M8850 4368 c0 -6 -8 -30 -19 -52 -10 -23 -29 -67 -42 -99 -30 -73
-102 -145 -210 -212 -59 -36 -92 -64 -116 -99 -36 -53 -40 -66 -19 -66 8 0 28
22 45 50 17 27 45 57 63 66 54 28 140 89 185 132 43 41 72 92 117 201 30 74
32 91 11 91 -8 0 -15 -5 -15 -12z"/>
<path d="M8982 3980 c0 -14 2 -19 5 -12 2 6 2 18 0 25 -3 6 -5 1 -5 -13z"/>
<path d="M8955 3897 c-4 -26 -11 -50 -16 -53 -5 -3 -9 -16 -9 -29 0 -33 -44
-147 -67 -175 -113 -140 -130 -151 -293 -192 -81 -19 -100 -28 -132 -60 -35
-35 -38 -42 -38 -96 0 -66 33 -239 49 -255 20 -20 21 0 6 69 -58 253 -53 263
173 328 103 29 129 40 156 68 62 64 114 138 131 185 9 26 21 57 25 68 13 31
33 160 28 176 -3 8 -9 -7 -13 -34z"/>
<path d="M7895 3770 c-3 -6 0 -12 7 -14 28 -9 181 -26 189 -20 20 12 6 21 -55
32 -78 15 -133 15 -141 2z"/>
<path d="M2764 3735 c15 -60 84 -191 121 -227 66 -65 77 -43 16 30 -21 26 -58
83 -81 127 -48 92 -66 115 -56 70z"/>
<path d="M7280 3719 c0 -22 33 -67 63 -84 49 -29 275 -85 342 -85 43 0 74 14
61 27 -4 4 -35 8 -69 8 -60 1 -208 32 -295 63 -23 8 -56 30 -72 49 -17 18 -30
29 -30 22z"/>
<path d="M8190 3715 c0 -23 71 -86 130 -114 49 -23 70 -26 188 -29 139 -4 197
4 132 19 -19 4 -78 8 -130 8 -132 1 -258 47 -290 106 -15 28 -30 33 -30 10z"/>
<path d="M8125 3449 c-55 -17 -318 -48 -470 -54 -179 -8 -422 7 -566 35 -147
28 -248 27 -302 -4 -37 -21 -90 -42 -212 -85 -158 -55 -577 -164 -710 -185
-34 -6 -128 -30 -250 -66 -16 -5 -48 -12 -70 -15 -22 -4 -110 -22 -195 -41
-85 -19 -198 -40 -250 -48 -52 -8 -126 -21 -165 -30 -118 -25 -150 -27 -470
-31 -272 -4 -325 -2 -430 15 -66 11 -141 19 -166 20 -75 0 -108 11 -145 45
-44 42 -45 17 0 -32 33 -36 35 -37 147 -49 63 -7 150 -17 194 -23 181 -25 733
-11 891 23 38 8 123 24 189 36 107 19 180 35 405 87 36 8 99 22 140 30 41 8
79 18 85 22 13 10 73 25 225 56 123 25 253 58 298 76 13 5 34 9 47 9 13 0 39
6 57 14 18 8 80 28 138 46 58 17 146 50 195 73 75 34 103 42 166 45 42 2 100
-1 130 -7 300 -61 738 -61 1067 0 111 20 126 25 117 40 -8 11 -50 10 -90 -2z"/>
</g>
</svg>
